PathFileType	4	(X/Y/Z)	/Users/mathieubourgeois/Desktop/Analyse/Traitement/Sujet_08/Data/Transformed_Sujet_08_velo_60.trc
DataRate	CameraRate	NumFrames	NumMarkers	Units	OrigDataRate	OrigDataStartFrame	OrigNumFrames
120.000000	120.000000	4	35	mm	120.000000	466	1866
Frame#	Time	RFHD			RANE			STRN			LANI			LKNE			T10			RHUM			RWRB			C7			LFWT			LTOE			RTOE			LWRA			LBWT			RBWT			RFWT			LKNI			RKNI			RKNE			LANE			RANI			LHEE			LHUM			LRAD			RRAD			RWRA			LWRB			LFHD			LBHD			RBHD			RSHO			LSHO			CLAV			LCAR			RCAR			
		X1	Y1	Z1	X2	Y2	Z2	X3	Y3	Z3	X4	Y4	Z4	X5	Y5	Z5	X6	Y6	Z6	X7	Y7	Z7	X8	Y8	Z8	X9	Y9	Z9	X10	Y10	Z10	X11	Y11	Z11	X12	Y12	Z12	X13	Y13	Z13	X14	Y14	Z14	X15	Y15	Z15	X16	Y16	Z16	X17	Y17	Z17	X18	Y18	Z18	X19	Y19	Z19	X20	Y20	Z20	X21	Y21	Z21	X22	Y22	Z22	X23	Y23	Z23	X24	Y24	Z24	X25	Y25	Z25	X26	Y26	Z26	X27	Y27	Z27	X28	Y28	Z28	X29	Y29	Z29	X30	Y30	Z30	X31	Y31	Z31	X32	Y32	Z32	X33	Y33	Z33	X34	Y34	Z34	X35	Y35	Z35	

467	3.883333333333333	234.1746826171875	1509.431274414062	73.79959106445305	-300.9812316894531	515.735595703125	169.9046325683593	-47.87430191040039	1165.270385742188	13.59074687957756	-41.72260665893554	367.6344299316406	-82.98976898193362	-14.7395668029785	781.7527465820312	-151.1734466552735	-203.6426086425781	1356.97900390625	16.45092582702626	149.6748352050781	1081.702880859375	200.3749694824218	330.4463500976562	908.0150146484375	251.8074493408203	13.9907054901123	1437.09423828125	18.6790122985839	-260.0861511230469	1096.767944335938	-104.1368103027345	126.1999893188477	282.5745239257812	-119.3010482788086	-188.4408874511719	354.8671875	145.3879089355468	359.8173217773438	937.188232421875	-172.1341552734375	-400.2502136230469	1154.470825195312	-35.51803207397473	-394.7171630859375	1154.2587890625	96.12847137451161	-237.2056732177735	1091.576049804688	125.6950607299804	-26.21014022827148	709.1778564453125	-50.65509796142582	-22.60455131530763	728.2188720703125	83.82257843017574	-22.83546638488772	790.4187622070312	188.0970764160156	-74.55529022216795	354.9224853515625	-166.5572204589844	-270.8532104492188	510.8176879882812	92.22161102294916	-118.8522644042969	330.7269897460938	-124.1174774169922	131.8452301025391	1079.0205078125	-173.1461486816407	186.5345001220703	1110.816284179688	-223.0843505859375	188.0082550048828	1104.236938476562	249.2102508544922	361.2179260253906	930.9290771484375	188.0098266601562	322.7097473144531	896.9127197265625	-223.7932434082032	234.1653747558594	1520.67724609375	-53.82183074951178	79.80352783203126	1541.165283203125	-62.80649566650399	70.36784362792967	1546.084594726562	74.52420806884757	64.20931243896483	1366.713745117188	139.8827362060546	53.46656036376955	1368.155639648438	-128.6918182373048	57.01519393920898	1304.232543945312	11.5927600860595	421.4071044921876	908.8224487304688	-255.8935852050781	433.3760070800781	895.4410400390625	278.3705749511719	
468	3.891666666666667	234.6100616455078	1509.998291015625	74.38761901855462	-297.42822265625	524.71826171875	170.1304473876953	-47.15431976318359	1165.533569335938	14.02764320373528	-45.20878982543945	359.0863647460938	-82.95740509033206	-19.61365318298338	773.6471557617188	-151.5284881591797	-203.0450897216797	1356.972900390625	16.56074523925771	149.9022216796875	1081.804321289062	200.6175994873047	330.5392761230468	907.957763671875	251.8631134033203	14.47946643829346	1437.398681640625	19.30202102661124	-259.2774353027344	1096.3173828125	-104.5499267578126	122.7740859985352	273.3282470703125	-119.4386978149414	-185.0296630859375	363.925537109375	145.3818817138671	359.9624328613281	937.1116943359375	-172.1703491210938	-399.3109436035156	1154.392822265625	-36.39077377319348	-394.1579895019531	1154.5625	95.33277893066395	-236.8836517333985	1091.834228515625	125.0707168579101	-32.16036224365234	700.9661865234375	-51.26813507080083	-17.91992187500001	735.5361938476562	83.37181854248043	-18.03769874572756	797.531005859375	187.9011840820312	-77.7294464111328	346.378662109375	-166.4529724121094	-267.434814453125	519.8162841796875	92.46124267578119	-122.1767959594726	322.4044189453125	-124.2907409667969	132.3124542236328	1079.253662109375	-172.9945526123047	186.954086303711	1111.074951171875	-223.0005493164063	188.2660217285156	1104.292236328125	249.5458374023437	361.267578125	930.9203491210938	188.0252532958984	322.8449096679688	896.87451171875	-223.8032379150391	234.4967956542969	1521.3212890625	-53.24368286132819	80.0906219482422	1541.63037109375	-62.04428863525399	70.69843292236327	1546.494506835938	75.24240875244132	64.57391357421874	1367.012084960938	140.6009368896484	54.22532653808595	1368.504638671875	-128.1750946044923	57.6666374206543	1304.615966796875	12.16966152191155	421.5454406738282	908.7652587890625	-255.9275665283203	433.4810791015624	895.3988037109375	278.3252258300781	
469	3.9	234.9635772705078	1510.513061523438	74.9689865112304	-293.4403991699219	533.5370483398438	170.4100036621093	-46.39719390869141	1165.77880859375	14.44885826110832	-48.92593002319335	350.9190063476562	-82.94050598144534	-25.09060668945311	765.6712036132812	-151.4146575927735	-202.4748992919922	1356.94091796875	16.63224983215321	150.0828704833984	1081.917846679688	200.9032287597656	330.6495361328124	907.941162109375	251.9197082519531	14.91401100158691	1437.683715820312	19.9149742126464	-258.4901428222656	1095.843872070312	-104.9763565063478	118.877067565918	264.0536499023438	-119.5735092163086	-181.0071868896485	372.8059692382812	145.3891296386718	360.1214294433594	937.0264892578125	-172.1898651123047	-398.4078674316406	1154.30908203125	-37.17728805542004	-393.6273498535156	1154.836059570312	94.53495788574207	-236.5712280273438	1092.072998046875	124.446060180664	-38.17909240722656	693.1777954101562	-51.64106750488286	-13.25682544708253	743.04638671875	82.91072082519527	-13.35987186431887	804.8721923828125	187.6626739501953	-81.61489105224608	338.1972351074219	-166.3611145019532	-263.6665954589844	528.5625610351562	92.65814971923822	-125.9852676391601	314.4124755859375	-124.1278991699219	132.7216033935547	1079.517211914062	-172.8657531738282	187.7165069580078	1111.312622070312	-222.5754699707032	188.443130493164	1104.343872070312	249.8587646484375	361.3423767089844	930.8961181640625	188.0307159423828	322.9496459960938	896.8527221679688	-223.8515625	234.8240203857422	1521.897583007812	-52.64302444458014	80.37036895751955	1542.043090820312	-61.3390541076661	71.10134124755858	1546.873413085938	75.96652221679679	64.92140960693358	1367.308471679688	141.2250518798827	54.93048095703126	1368.849975585938	-127.6081695556641	58.29157257080078	1304.9716796875	12.69697666168206	421.6747436523438	908.6937255859375	-255.9564971923828	433.5891418457031	895.35498046875	278.2837219238281	
470	3.908333333333333	235.3854675292969	1510.994506835938	75.51678466796868	-289.1037292480469	542.0205688476562	170.5946960449218	-45.58683776855469	1166.010009765625	14.82043933868401	-53.07959747314452	343.1384887695312	-82.69931793212892	-30.6746196746826	758.034912109375	-151.3130645751954	-201.9490661621094	1356.924438476562	16.7106704711913	150.2356414794922	1082.031860351562	201.1832427978515	330.7402648925781	907.9180908203125	251.9716644287109	15.32830905914306	1437.962158203125	20.51899147033683	-257.7284240722656	1095.375610351562	-105.3555603027345	114.5252838134766	255.0226287841797	-119.6886825561523	-178.2742156982422	380.5018310546875	144.4025115966796	360.2690124511719	936.9801635742188	-172.2347717285156	-397.5646362304688	1154.22021484375	-37.94262313842786	-393.1480712890625	1155.106689453125	93.76471710205067	-236.284896850586	1092.371459960938	123.9029541015624	-43.99201965332031	685.6769409179688	-51.7011108398438	-8.580008506774913	750.6600952148438	82.33198547363277	-8.841051101684593	812.3872680664062	187.3768157958984	-85.8427276611328	330.4052124023438	-166.1305694580078	-259.6561584472656	537.042724609375	92.82928466796869	-130.1363220214843	306.9714965820312	-123.7862930297852	133.1305236816407	1079.7861328125	-172.7688751220703	188.138427734375	1111.5107421875	-222.4724273681641	188.573013305664	1104.352172851562	250.1565551757812	361.3702697753906	930.8756103515625	188.0579223632812	323.047119140625	896.8474731445312	-223.8768310546875	235.0637512207031	1522.47119140625	-52.08666992187506	80.62020874023439	1542.461547851562	-60.61924743652352	71.43042755126952	1547.162719726562	76.6570281982421	66.90467071533202	1368.285888671875	142.1275329589843	55.58005523681642	1369.15673828125	-127.0565643310548	58.85477828979492	1305.3466796875	13.25303936004631	421.7980957031251	908.65234375	-255.9806213378906	433.6783142089843	895.3185424804688	278.2721862792969	
